
        <svg xmlns="http://www.w3.org/2000/svg" xmlns:xlink="http://www.w3.org/1999/xlink" version="1.1" width="2496.2297917921337" 
        height="3290.618822545737" viewBox="0 0 2496.2297917921337 3290.618822545737">
			
			<g transform="scale(14.530941127286862) translate(10, 10)">
				<defs id="SvgjsDefs1030"><linearGradient id="SvgjsLinearGradient1035"><stop id="SvgjsStop1036" stop-color="#7d141d" offset="0"></stop><stop id="SvgjsStop1037" stop-color="#ff1e27" offset="1"></stop></linearGradient></defs><g id="SvgjsG1031" featureKey="ECw45b-0" transform="matrix(1.5310810035570617,0,0,1.5310810035570617,0.946717862429999,10)" fill="url(#SvgjsLinearGradient1035)"><g xmlns="http://www.w3.org/2000/svg"><path fill-rule="evenodd" clip-rule="evenodd" d="M5.913,5.835v58.376c0.874,0.021,1.472,0.674,1.472,1.606   c0,0.897-0.566,1.565-1.472,1.601v16.328c3.223,0,5.835,2.612,5.835,5.836h30.397c0-3.224,2.612-5.836,5.835-5.836V67.383   c-0.753-0.122-1.264-0.735-1.264-1.564c0-0.843,0.521-1.435,1.264-1.562V5.835c-3.223,0-5.835-2.614-5.835-5.835H11.749   C11.749,3.222,9.136,5.835,5.913,5.835z M44.466,65.818c0,0.922-0.588,1.613-1.535,1.613c-0.896,0-1.512-0.691-1.512-1.613   c0-0.947,0.641-1.614,1.537-1.614S44.466,64.871,44.466,65.818z M39.169,65.818c0,0.922-0.589,1.613-1.536,1.613   c-0.896,0-1.511-0.691-1.511-1.613c0-0.947,0.641-1.614,1.536-1.614C38.555,64.204,39.169,64.871,39.169,65.818z M33.872,65.818   c0,0.922-0.589,1.613-1.536,1.613c-0.897,0-1.509-0.691-1.509-1.613c0-0.947,0.639-1.614,1.535-1.614   C33.257,64.204,33.872,64.871,33.872,65.818z M28.574,65.818c0,0.922-0.589,1.613-1.536,1.613c-0.896,0-1.511-0.691-1.511-1.613   c0-0.947,0.639-1.614,1.536-1.614C27.96,64.204,28.574,64.871,28.574,65.818z M23.277,65.818c0,0.922-0.589,1.613-1.536,1.613   c-0.896,0-1.509-0.691-1.509-1.613c0-0.947,0.64-1.614,1.535-1.614C22.664,64.204,23.277,64.871,23.277,65.818z M17.979,65.818   c0,0.922-0.587,1.613-1.535,1.613c-0.898,0-1.511-0.691-1.511-1.613c0-0.947,0.64-1.614,1.536-1.614   C17.365,64.204,17.979,64.871,17.979,65.818z M12.683,65.818c0,0.922-0.589,1.613-1.537,1.613c-0.896,0-1.509-0.691-1.509-1.613   c0-0.947,0.639-1.614,1.535-1.614C12.068,64.204,12.683,64.871,12.683,65.818z M36.7,9.803v18.193h-1.399V9.803H36.7z    M33.944,9.803v18.193h-1.442V9.803H33.944z M31.146,9.803v18.193h-4.199V9.803H31.146z M25.504,9.803v18.193h-1.356V9.803H25.504z    M22.749,9.803v18.193h-2.799V9.803H22.749z M18.506,9.803v18.193H17.15V9.803H18.506z"></path><path fill-rule="evenodd" clip-rule="evenodd" d="M91.371,19.312L64,6.092c-1.402,2.9-4.891,4.118-7.793,2.716l-4.104,8.498v46.951   v3.475v16.016v4.122H47.98c-0.944,0-1.714,0.769-1.714,1.714v4.122h-4.121H39.42l12.989,6.273c1.402-2.902,4.892-4.119,7.794-2.717   l7.116-14.735c-0.624-0.438-0.818-1.212-0.457-1.959c0.366-0.758,1.092-1.064,1.816-0.856l25.408-52.606   C91.186,25.703,89.971,22.212,91.371,19.312z M55.296,74.981c-0.4,0.829-1.231,1.195-2.085,0.783   c-0.808-0.389-1.059-1.277-0.657-2.109c0.41-0.852,1.275-1.175,2.084-0.784C55.444,73.262,55.708,74.128,55.296,74.981z    M72.122,20.902l-7.911,16.382l-1.221-0.59l7.911-16.382L72.122,20.902z M64.6,17.269l1.222,0.59l-7.913,16.382l-1.221-0.589   L64.6,17.269z M60.064,77.285c-0.399,0.831-1.231,1.195-2.084,0.785c-0.808-0.391-1.06-1.28-0.658-2.11   c0.412-0.853,1.277-1.175,2.085-0.785C60.215,75.563,60.478,76.434,60.064,77.285z M59.209,34.868l7.911-16.382l2.521,1.216   l-7.912,16.383L59.209,34.868z M64.836,79.589c-0.401,0.829-1.231,1.197-2.085,0.784c-0.808-0.39-1.06-1.279-0.659-2.109   c0.412-0.854,1.279-1.176,2.086-0.785C64.983,77.869,65.247,78.735,64.836,79.589z M65.51,37.912l7.912-16.382l3.78,1.825   l-7.911,16.383L65.51,37.912z M70.512,40.328l7.912-16.383l1.298,0.627l-7.911,16.382L70.512,40.328z M74.293,42.154l-1.262-0.609   l7.913-16.383l1.26,0.609L74.293,42.154z"></path></g></g><g id="SvgjsG1032" featureKey="6sJQsk-0" transform="matrix(1.6,0,0,1.6,1.9440006256103515,174.45600128173828)" fill="#111111"><path d="M13.9 20 l-2.24 0 l-1.38 -3.66 l-6 0 l-1.38 3.66 l-2.24 0 l2.32 -6.2 l-1.02 -1.08 l1.78 -0.92 l2.42 -6.46 l2.24 0 z M9.48 14.2 l-2.2 -6 l-2.2 6 l4.4 0 z M30.492000000000004 12.7 l-1.22 1.08 l0 6.2 l-2.14 0 l0 -6.2 l-6.1 0 l0 6.2 l-2.14 0 l0 -6.2 l-1.22 -1.08 l1.22 -1.06 l0 -6.3 l2.14 0 l0 6.3 l6.1 0 l0 -6.3 l2.14 0 l0 6.3 z M46.764 12.719999999999999 l-1.24 1.06 l0 3.76 l-2.76 2.46 l-4.78 0 l-2.76 -2.46 l0 -3.96 l2.14 0 l0 3.04 l1.54 1.24 l2.94 0 l1.54 -1.44 l0 -11.08 l2.14 0 l0 6.3 z M56.096000000000004 12.719999999999999 l-1.22 1.08 l0 6.2 l-2.14 0 l0 -6.2 l-1.22 -1.08 l1.22 -1.06 l0 -6.32 l2.14 0 l0 6.32 z M70.62800000000001 20 l-10.38 0 l0 -2.14 l7.7 -10.38 l-7.7 0 l0 -2.14 l10.38 0 l0 2.14 l-7.64 10.38 l7.64 0 l0 2.14 z M84.66000000000001 20 l-8.86 0 l0 -6.22 l-1.22 -1.06 l1.22 -1.08 l0 -6.3 l2.14 0 l0 12.52 l6.72 0 l0 2.14 z M93.652 12.719999999999999 l-1.22 1.08 l0 6.2 l-2.14 0 l0 -6.2 l-1.22 -1.08 l1.22 -1.06 l0 -6.32 l2.14 0 l0 6.32 z"></path></g>
			</g>
		</svg>
	