<svg xmlns="http://www.w3.org/2000/svg" width="229.325" height="247.091" viewBox="0 0 229.325 247.091">
  <g id="Group_8" data-name="Group 8" transform="translate(0.996 1.242)">
    <path id="Path_48" data-name="Path 48" d="M144.93,229.333c0-8.762,8.762-8.762,8.762-8.762s8.762,0,8.762-8.762-8.762-8.762-8.762-8.762-8.762,0-8.762-8.762,8.762-8.762,8.762-8.762h8.762s8.762,0,8.762-8.762S162.454,168,162.454,168h-43.81c-6.021,0-7.9,4-8.489,6.594a53.3,53.3,0,0,0,1.782,11.51c.685,2.273.864,4.71,1.407,6.989.627,2.636,1.691,4.136,2.783,6.484.6,1.279,1.02,2.632,1.67,3.889.692,1.339.8,2.515,1.393,3.864a65.684,65.684,0,0,0,6.436,10.786,88.106,88.106,0,0,0,7.661,9.487c.729.783,8.394,8.75,8.89,8.333A8.126,8.126,0,0,0,144.93,229.333Z" transform="translate(-84.074 -45.333)" fill="#fff"/>
    <path id="Path_49" data-name="Path 49" d="M243.606,153h-57.32s-8.762.145-8.762,8.762,8.762,8.762,8.762,8.762H203.81s8.762.293,8.762,8.762-8.762,8.762-8.762,8.762H168.762S160,188.34,160,196.81s8.762,8.762,8.762,8.762h17.524s8.762.145,8.762,8.762,8.762,8.762,8.762,8.762h8.762s8.762,0,8.762,8.762v10S259.16,208.64,243.606,153Z" transform="translate(-46.572 -56.619)" fill="#fff"/>
    <path id="Path_50" data-name="Path 50" d="M190.1,118s-8.762,0-8.762,8.762,8.762,8.762,8.762,8.762h17.524s8.762,0,8.762,8.762-8.762,8.762-8.762,8.762H172.574s-8.762,0-8.762,8.762,8.762,8.762,8.762,8.762,8.762,0,8.762,8.762-8.762,8.762-8.762,8.762H137.526s-8.762,0-8.762-8.762,8.762-8.762,8.762-8.762,8.762-1.314,8.762-9.419-8.762-8.1-8.762-8.1H120S143.442,118,190.1,118Z" transform="translate(-76.669 -82.952)" fill="#fff"/>
    <ellipse id="Ellipse_1" data-name="Ellipse 1" cx="87.619" cy="87.619" rx="87.619" ry="87.619" transform="translate(25.809 35.048)" fill="none" stroke="#e8faff" stroke-miterlimit="10" stroke-width="2"/>
    <path id="Path_51" data-name="Path 51" d="M110.858,240.217a105.274,105.274,0,0,1,7.719-106.282" transform="translate(-91.715 -70.963)" fill="none" stroke="#fff" stroke-miterlimit="10" stroke-width="2"/>
    <path id="Path_52" data-name="Path 52" d="M252.631,129.374c16.083-10.22,27.861-14.357,32.042-10.18,9.232,9.233-22.117,55.552-70.022,103.457s-94.224,79.253-103.457,70.02c-4-4-.382-14.957,8.9-29.99" transform="translate(-84.505 -83.267)" fill="none" stroke="#000" stroke-miterlimit="10" stroke-width="2" stroke-dasharray="3 6"/>
    <path id="Path_53" data-name="Path 53" d="M116.028,123.073l11.152-8.019,6.951,9.8-11.153,8.019Z" transform="translate(-79.655 -85.169)" fill="#fff"/>
    <path id="Path_54" data-name="Path 54" d="M116.028,130.8l34.059-24.493c3.359-2.417,11.99-1.225,11.99-1.225h0s-1.679,8.606-5.04,11.021L122.98,140.594" transform="translate(-79.656 -92.894)" fill="none" stroke="#000" stroke-miterlimit="10" stroke-width="2"/>
    <path id="Path_55" data-name="Path 55" d="M144.1,116.951,119.017,98l-5.271,3.791,21.027,21.865Z" transform="translate(-81.372 -98)" fill="none" stroke="#000" stroke-miterlimit="10" stroke-width="2"/>
    <path id="Path_56" data-name="Path 56" d="M139.038,114.4l9.675,30.031-5.271,3.791L129.713,121.11Z" transform="translate(-69.359 -85.657)" fill="none" stroke="#000" stroke-miterlimit="10" stroke-width="2"/>
    <path id="Path_57" data-name="Path 57" d="M124.1,125.446,121.363,135.5l-3.194,2.3-3.628-12.881Z" transform="translate(-80.774 -77.746)" fill="none" stroke="#000" stroke-miterlimit="10" stroke-width="2"/>
    <path id="Path_58" data-name="Path 58" d="M121.838,119.911l-10.338-.655-3.194,2.295,10.926,7.632Z" transform="translate(-85.465 -82.007)" fill="none" stroke="#000" stroke-miterlimit="10" stroke-width="2"/>
    <path id="Path_59" data-name="Path 59" d="M95.272,185.5A113.306,113.306,0,0,1,115.3,130.789" transform="translate(-95.272 -73.33)" fill="none" stroke="#fff" stroke-miterlimit="10" stroke-width="2"/>
    <path id="Path_60" data-name="Path 60" d="M217.392,141a105.281,105.281,0,0,1-7.721,106.282" transform="translate(-9.2 -65.648)" fill="none" stroke="#fff" stroke-miterlimit="10" stroke-width="2"/>
    <path id="Path_61" data-name="Path 61" d="M212.017,220.161l-11.152,8.019-6.951-9.8,11.153-8.019Z" transform="translate(-21.056 -13.459)" fill="#fff"/>
    <path id="Path_62" data-name="Path 62" d="M224.015,220.161l-34.059,24.493c-3.358,2.415-11.99,1.225-11.99,1.225h0s1.681-8.606,5.04-11.021l34.059-24.493" transform="translate(-33.055 -13.459)" fill="none" stroke="#000" stroke-miterlimit="10" stroke-width="2"/>
    <path id="Path_63" data-name="Path 63" d="M189.205,229.649,214.287,248.6l5.271-3.791-21.027-21.866Z" transform="translate(-24.598 -3.994)" fill="none" stroke="#000" stroke-miterlimit="10" stroke-width="2"/>
    <path id="Path_64" data-name="Path 64" d="M189.392,235.7l-9.675-30.031,5.271-3.791L198.717,229Z" transform="translate(-31.737 -19.843)" fill="none" stroke="#000" stroke-miterlimit="10" stroke-width="2"/>
    <path id="Path_65" data-name="Path 65" d="M200.278,215.67l2.735-10.059,3.194-2.3,3.628,12.881Z" transform="translate(-16.268 -18.764)" fill="none" stroke="#000" stroke-miterlimit="10" stroke-width="2"/>
    <path id="Path_66" data-name="Path 66" d="M204.244,219.936l10.338.655,3.194-2.295-10.926-7.631Z" transform="translate(-13.283 -13.233)" fill="none" stroke="#000" stroke-miterlimit="10" stroke-width="2"/>
    <path id="Path_67" data-name="Path 67" d="M233.6,173.574a113.286,113.286,0,0,1-20.023,54.713" transform="translate(-6.264 -41.14)" fill="none" stroke="#fff" stroke-miterlimit="10" stroke-width="2"/>
    <path id="Path_68" data-name="Path 68" d="M171.333,231.8h-8.776a9,9,0,0,0-8.99-8.86H136.517a8.995,8.995,0,0,0-8.988,8.86h-8.767a8.762,8.762,0,0,0,0,17.524h52.571a8.762,8.762,0,1,0,0-17.524Z" transform="translate(-84.191 -3.994)" fill="#fff"/>
    <circle id="Ellipse_2" data-name="Ellipse 2" cx="4.381" cy="4.381" r="4.381" transform="translate(113.428)" fill="#fff"/>
    <circle id="Ellipse_3" data-name="Ellipse 3" cx="8.762" cy="8.762" r="8.762" transform="translate(148.476 8.762)" fill="#fff"/>
  </g>
</svg>
