<svg xmlns="http://www.w3.org/2000/svg" width="259.783" height="278.916" viewBox="0 0 259.783 278.916">
  <g id="Group_18" data-name="Group 18" transform="translate(-66.217 -46.629)">
    <line id="Line_2" data-name="Line 2" x2="80.019" transform="translate(226.231 147.612)" fill="none" stroke="#0e1c43" stroke-miterlimit="10" stroke-width="2"/>
    <line id="Line_3" data-name="Line 3" x2="80.019" transform="translate(226.231 126.658)" fill="none" stroke="#0e1c43" stroke-miterlimit="10" stroke-width="2"/>
    <line id="Line_4" data-name="Line 4" x2="80.019" transform="translate(226.231 115.28)" fill="none" stroke="#0e1c43" stroke-miterlimit="10" stroke-width="2"/>
    <line id="Line_5" data-name="Line 5" x2="80.019" transform="translate(226.231 136.66)" fill="none" stroke="#0e1c43" stroke-miterlimit="10" stroke-width="2"/>
    <path id="Path_71" data-name="Path 71" d="M1166.175,607.242l-108.4,54.806,7.367,2.421,108.4-54.806Z" transform="translate(-968.527 -494.142)" fill="#e4e5e7"/>
    <path id="Path_72" data-name="Path 72" d="M1069.732,590.807a5.369,5.369,0,0,0-6.776,3.427l-9.674,29.467,45.917-23.218Z" transform="translate(-973.023 -510.854)" fill="#e4e5e7"/>
    <path id="Path_73" data-name="Path 73" d="M1171.633,609.033l-108.405,54.806,11.192,3.675,108.4-54.806Z" transform="translate(-963.073 -492.35)" fill="#e4e5e7"/>
    <path id="Path_74" data-name="Path 74" d="M1169.857,608.451l-108.4,54.806,3.54,1.162L1173.4,609.614Z" transform="translate(-964.843 -492.931)" fill="#c4c4c4"/>
    <path id="Path_75" data-name="Path 75" d="M1106.222,595.509,1060.3,618.727l-13.771,41.93a5.365,5.365,0,0,0,3.421,6.78l19.339,6.35,108.4-54.805Z" transform="translate(-980.046 -505.88)" fill="#c4c4c4"/>
    <path id="Path_76" data-name="Path 76" d="M1183.407,618.553a5.361,5.361,0,0,0-3.423-6.774l-2.763-.91-108.4,54.807,34.212,11.237,73.4-37.109Z" transform="translate(-957.475 -490.513)" fill="#c4c4c4"/>
    <path id="Path_77" data-name="Path 77" d="M1100.621,657.393l20.753,6.818a5.367,5.367,0,0,0,6.774-3.433l6.816-20.749Z" transform="translate(-925.661 -494.339)" fill="#c4c4c4"/>
    <path id="Path_78" data-name="Path 78" d="M1159.322,625.333l-73.4,37.109,29.4,9.655,34.342-17.365Z" transform="translate(-940.365 -476.041)" fill="#e4e5e7"/>
    <rect id="Rectangle_9" data-name="Rectangle 9" width="14.314" height="142.999" transform="translate(83.979 101.984) rotate(-71.82)" fill="#fff"/>
    <rect id="Rectangle_10" data-name="Rectangle 10" width="14.615" height="64.492" transform="translate(82.918 128.16) rotate(-71.821)" fill="#fff"/>
    <rect id="Rectangle_11" data-name="Rectangle 11" width="7.457" height="13.938" transform="translate(146.424 141.482) rotate(-71.819)" fill="#fff"/>
    <path id="Path_79" data-name="Path 79" d="M1072.38,632.434a5.374,5.374,0,0,1-6.78,3.425l-9.917-3.257a5.37,5.37,0,0,1-3.427-6.778l1.072-3.259a5.365,5.365,0,0,1,6.776-3.423l9.916,3.255a5.371,5.371,0,0,1,3.427,6.776Z" transform="translate(-974.318 -482.506)" fill="#ed4f3e"/>
    <line id="Line_6" data-name="Line 6" x2="34.002" y2="11.167" transform="translate(114.637 145.797)" fill="none" stroke="#0e1c43" stroke-miterlimit="10" stroke-width="2"/>
    <line id="Line_7" data-name="Line 7" x2="88.684" y2="29.126" transform="translate(112.336 152.805)" fill="none" stroke="#0e1c43" stroke-miterlimit="10" stroke-width="2"/>
    <line id="Line_8" data-name="Line 8" x2="54.685" y2="17.96" transform="translate(110.077 159.679)" fill="none" stroke="#18254b" stroke-miterlimit="10" stroke-width="2"/>
    <rect id="Rectangle_12" data-name="Rectangle 12" width="7.157" height="18.938" transform="translate(121.906 137.039) rotate(-71.817)" fill="none" stroke="#000" stroke-miterlimit="10" stroke-width="2"/>
    <rect id="Rectangle_13" data-name="Rectangle 13" width="59.423" height="127.335" transform="matrix(0.887, -0.461, 0.461, 0.887, 66.501, 212.549)" fill="#fff"/>
    <path id="Path_80" data-name="Path 80" d="M1134.267,751.789a8.06,8.06,0,0,0-3.439,10.871l-24.006,12.473a8.067,8.067,0,0,0-10.875-3.441l-41.674-80.229a8.064,8.064,0,0,0,3.439-10.873l24-12.471a8.067,8.067,0,0,0,10.877,3.441Z" transform="translate(-972.03 -466.235)" fill="none" stroke="#000" stroke-miterlimit="10" stroke-width="2"/>
    <path id="Path_81" data-name="Path 81" d="M1093.705,695.417a14.008,14.008,0,1,1-18.889-5.973A14,14,0,0,1,1093.705,695.417Z" transform="translate(-959.035 -446.482)" fill="#e64553"/>
    <rect id="Rectangle_14" data-name="Rectangle 14" width="59.424" height="127.334" transform="translate(111.923 184.121) rotate(-12.25)" fill="#fff"/>
    <path id="Path_82" data-name="Path 82" d="M1136.419,754.275a8.066,8.066,0,0,0-6.17,9.592l-26.435,5.739a8.068,8.068,0,0,0-9.592-6.172l-19.181-88.349a8.063,8.063,0,0,0,6.169-9.59l26.437-5.739a8.063,8.063,0,0,0,9.592,6.17Z" transform="translate(-951.252 -474.602)" fill="none" stroke="#000" stroke-miterlimit="10" stroke-width="2"/>
    <path id="Path_83" data-name="Path 83" d="M1111.078,691.248a14.008,14.008,0,1,1-16.662-10.719A14.006,14.006,0,0,1,1111.078,691.248Z" transform="translate(-942.912 -454.14)" fill="#e64553"/>
    <rect id="Rectangle_15" data-name="Rectangle 15" width="59.423" height="127.335" transform="translate(165.78 167.83)" fill="#fff"/>
    <path id="Path_84" data-name="Path 84" d="M1143.27,754.789a8.067,8.067,0,0,0-8.066,8.066h-27.048a8.066,8.066,0,0,0-8.064-8.066V664.383a8.066,8.066,0,0,0,8.064-8.064h27.05a8.066,8.066,0,0,0,8.066,8.064Z" transform="translate(-926.19 -478.041)" fill="none" stroke="#000" stroke-miterlimit="10" stroke-width="2"/>
    <path id="Path_85" data-name="Path 85" d="M1131.9,689.953a14.008,14.008,0,1,1-14.009-14.01A14.009,14.009,0,0,1,1131.9,689.953Z" transform="translate(-922.398 -458.406)" fill="#e64553"/>
    <rect id="Rectangle_16" data-name="Rectangle 16" width="127.334" height="59.424" transform="translate(195.49 295.948) rotate(-77.75)" fill="#fff"/>
    <path id="Path_86" data-name="Path 86" d="M1116.805,754.275a8.07,8.07,0,0,1,6.169,9.592l26.432,5.739a8.069,8.069,0,0,1,9.592-6.172l19.181-88.349a8.063,8.063,0,0,1-6.169-9.59l-26.436-5.739a8.063,8.063,0,0,1-9.592,6.17Z" transform="translate(-909.469 -474.602)" fill="none" stroke="#000" stroke-miterlimit="10" stroke-width="2"/>
    <path id="Path_87" data-name="Path 87" d="M1125.463,691.248a14.008,14.008,0,1,0,16.662-10.719A14.006,14.006,0,0,0,1125.463,691.248Z" transform="translate(-901.129 -454.14)" fill="#e64553"/>
    <rect id="Rectangle_17" data-name="Rectangle 17" width="127.335" height="59.423" transform="translate(214.567 298.152) rotate(-62.549)" fill="#fff"/>
    <path id="Path_88" data-name="Path 88" d="M1128.266,751.789a8.06,8.06,0,0,1,3.439,10.871l24.006,12.473a8.067,8.067,0,0,1,10.875-3.441l41.674-80.229a8.064,8.064,0,0,1-3.439-10.873l-24-12.471a8.067,8.067,0,0,1-10.877,3.441Z" transform="translate(-898.003 -466.235)" fill="none" stroke="#000" stroke-miterlimit="10" stroke-width="2"/>
    <path id="Path_89" data-name="Path 89" d="M1142.837,695.417a14.008,14.008,0,1,0,18.889-5.973A14,14,0,0,0,1142.837,695.417Z" transform="translate(-885.007 -446.482)" fill="#e64553"/>
    <path id="Path_93" data-name="Path 93" d="M1187.066,663.918a26.673,26.673,0,1,0-35.339,13.193A26.672,26.672,0,0,0,1187.066,663.918Z" transform="translate(-890.144 -508.207)" fill="#fff"/>
    <path id="Path_94" data-name="Path 94" d="M1178.2,658.165a20.385,20.385,0,1,0-27.009,10.082A20.382,20.382,0,0,0,1178.2,658.165Z" transform="translate(-887 -505.062)" fill="none" stroke="#0e1c43" stroke-miterlimit="10" stroke-width="2"/>
    <path id="Path_95" data-name="Path 95" d="M1146.054,636.763l3.536-.928-4.7,10.311" transform="translate(-881.375 -498.534)" fill="none" stroke="#0e1c43" stroke-miterlimit="10" stroke-width="2"/>
    <path id="Path_96" data-name="Path 96" d="M1160.226,645.16a5.917,5.917,0,1,1-2.927-7.846A5.921,5.921,0,0,1,1160.226,645.16Z" transform="translate(-877.334 -497.59)" fill="none" stroke="#0e1c43" stroke-miterlimit="10" stroke-width="2"/>
    <path id="Path_97" data-name="Path 97" d="M1177.175,615.076a35.009,35.009,0,1,0-22.962,43.865A35.012,35.012,0,0,0,1177.175,615.076Z" transform="translate(-917.532 -543.881)" fill="#fff"/>
    <path id="Path_98" data-name="Path 98" d="M1165.172,613.413a26.757,26.757,0,1,0-17.548,33.526A26.754,26.754,0,0,0,1165.172,613.413Z" transform="translate(-913.406 -539.754)" fill="none" stroke="#0e1c43" stroke-miterlimit="10" stroke-width="2"/>
    <path id="Path_99" data-name="Path 99" d="M1136.853,600.929l-14.974,4.685,2.343,7.486,7.488-2.343s7.526-2.216,9.829,5.145-5.143,9.828-5.143,9.828l-9.719,3.041" transform="translate(-904.393 -533.457)" fill="none" stroke="#0e1c43" stroke-miterlimit="10" stroke-width="2"/>
    <path id="Path_100" data-name="Path 100" d="M1088.811,726.83a21.542,21.542,0,1,0-21.543,21.541A21.544,21.544,0,0,0,1088.811,726.83Z" transform="translate(-963.581 -442.047)" fill="none" stroke="#000" stroke-miterlimit="10" stroke-width="2" stroke-dasharray="3 6"/>
    <path id="Path_102" data-name="Path 102" d="M1156.25,615.517l10-10,10,10" transform="translate(-870.005 -528.869)" fill="none" stroke="#fff" stroke-miterlimit="10" stroke-width="2"/>
    <line id="Line_9" data-name="Line 9" y2="30.007" transform="translate(296.247 76.646)" fill="none" stroke="#fff" stroke-miterlimit="10" stroke-width="2"/>
    <path id="Path_103" data-name="Path 103" d="M1146.25,605.517l10-10,10,10" transform="translate(-880.01 -538.874)" fill="none" stroke="#fff" stroke-miterlimit="10" stroke-width="2"/>
    <line id="Line_10" data-name="Line 10" y2="50.012" transform="translate(276.243 56.641)" fill="none" stroke="#fff" stroke-miterlimit="10" stroke-width="2"/>
  </g>
</svg>
