<svg id="Group_474" data-name="Group 474" xmlns="http://www.w3.org/2000/svg" width="20.861" height="23.192" viewBox="0 0 20.861 23.192">
  <path id="Path_3120" data-name="Path 3120" d="M314.741,288.808a.287.287,0,0,0,.287-.287V287.4a.287.287,0,0,0-.287-.287h-2.873l.786,1.7Z" transform="translate(-295.657 -275.928)" fill="#fff"/>
  <path id="Path_3121" data-name="Path 3121" d="M138.159,447.086a.585.585,0,0,0,.585.585h13.845a.585.585,0,0,0,.585-.585V446.1H138.159Z" transform="translate(-133.358 -424.478)" fill="#fff"/>
  <path id="Path_3122" data-name="Path 3122" d="M134.746,121.613l-.885,0,2.119,5.454.7-.26a.734.734,0,0,0,.431-.945l-1.315-3.519A1.12,1.12,0,0,0,134.746,121.613Z" transform="translate(-129.342 -121.298)" fill="#fff"/>
  <path id="Path_3123" data-name="Path 3123" d="M85.361,133.24a1.1,1.1,0,0,0-.863-.909l-1.762-.373a1.1,1.1,0,0,1-.774-.616l-.677-1.462-.069-.149-.786-1.7-.314-.677a1.9,1.9,0,0,0-1.716-1.081h-5.29A1.194,1.194,0,0,1,72,125.512l-.956-2.481-2.211-5.693a1,1,0,0,0-.854-.486l-2.186.253a.732.732,0,0,0-.7.952l3.022,9.288a6.621,6.621,0,0,1,.309,2v6.923a1.436,1.436,0,0,0,1.436,1.436h0v.014H84.873V137.7h.185a.859.859,0,0,0,.849-.993Z" transform="translate(-65.057 -116.852)" fill="#fff"/>
</svg>
